PathFileType	4	(x/y/z)	S09_PSF_T08
DataRate	CameraRate	NumFrames	NumMarkers	Units	OrigDataRate	OrigDataStartFrame	OrigNumFrames
240	240	5	51	mm	240	355	473
Frame#	Time	Sternum			R.Acromium			L.Acromium			Top.Head			R.ASIS			L.ASIS			R.PSIS			L.PSIS			R.Great.Tro			L.Great.Tro			R.Iliac.Crest			L.Iliac.Crest			V.Sacral			R.Thigh.Upper.Post			R.Thigh.Lower.Ant			R.Thigh.Lower.Post			R.Thigh.Upper.Ant			R.Knee.Lat			R.Knee.Med			R.Shank.Upper.Post			R.Shank.Lower.Ant			R.Shank.Lower.Post			R.Shank.Upper.Ant			R.Ankle.Lat			R.Ankle.Med			R.Heel.Upper			R.Heel.Med			R.Heel.Lat			R.Toe.Lat			R.Toe.Med			R.Toe.Tip			L.Thigh.Upper.Post			L.Thigh.Lower.Ant			L.Thigh.Lower.Post			L.Thigh.Upper.Ant			L.Knee.Lat			L.Knee.Med			L.Shank.Upper.Post			L.Shank.Lower.Ant			L.Shank.Lower.Post			L.Shank.Upper.Ant			L.Ankle.Lat			L.Ankle.Med			L.Heel.Upper			L.Heel.Med			L.Heel.Lat			L.Toe.Lat			L.Toe.Med			L.Toe.Tip			Cervical.Spine			Back			
		X1	Y1	Z1	X2	Y2	Z2	X3	Y3	Z3	X4	Y4	Z4	X5	Y5	Z5	X6	Y6	Z6	X7	Y7	Z7	X8	Y8	Z8	X9	Y9	Z9	X10	Y10	Z10	X11	Y11	Z11	X12	Y12	Z12	X13	Y13	Z13	X14	Y14	Z14	X15	Y15	Z15	X16	Y16	Z16	X17	Y17	Z17	X18	Y18	Z18	X19	Y19	Z19	X20	Y20	Z20	X21	Y21	Z21	X22	Y22	Z22	X23	Y23	Z23	X24	Y24	Z24	X25	Y25	Z25	X26	Y26	Z26	X27	Y27	Z27	X28	Y28	Z28	X29	Y29	Z29	X30	Y30	Z30	X31	Y31	Z31	X32	Y32	Z32	X33	Y33	Z33	X34	Y34	Z34	X35	Y35	Z35	X36	Y36	Z36	X37	Y37	Z37	X38	Y38	Z38	X39	Y39	Z39	X40	Y40	Z40	X41	Y41	Z41	X42	Y42	Z42	X43	Y43	Z43	X44	Y44	Z44	X45	Y45	Z45	X46	Y46	Z46	X47	Y47	Z47	X48	Y48	Z48	X49	Y49	Z49	X50	Y50	Z50	X51	Y51	Z51	

355	1.475	294.34	1189.8	302.87	144.65	1432.6	458.39	149.26	1437.1	143.82	156.24	1739.9	297.15	234.46	1015.8	414.27	247.36	1030.4	169.94	17.301	1035.4	324.86	29.332	1045.6	236.26	151	923.55	479.87	182.62	940.48	95.277	144.04	1090.7	454.69	142.1	1123.5	132.53	4.5372	1006.2	272.7	220.78	683.62	477.95	320.42	603.45	460.58	242.02	592.6	460.02	293.82	688.85	476.6	303.2	517.67	456.47	323.19	505.18	332.7	141.71	435.65	438.53	146.55	344.12	434.58	87.231	383.48	422.33	194.35	398.57	450.55	-25.995	237.97	394.24	18.277	222.84	312.46	-71.154	269.4	327.85	-81.79	239.43	296.48	-100.26	248.28	358.13	-19.556	121.88	434.25	38.347	88.73	343.76	71.055	67.37	396.36	138.72	674.01	147.45	227.89	584.89	155.79	159.57	587.04	170.03	208.48	668.09	128.33	217.88	506.17	168.37	233.54	525.14	300.77	165.65	373.81	160.56	225.29	282.41	178.18	162.46	297.53	169.89	227.51	359.89	169.78	171.43	102.92	198.84	187.32	96.576	292.52	101.17	71.377	253.2	114.77	46.737	285.63	100.48	42.759	225.32	271.21	44.317	164.59	313.55	42.683	272.81	361.05	62.171	211.41	73.494	1482.2	312.43	28.613	1213.8	289.97
356	1.4792	299.04	1190.2	302.78	149.66	1433.1	458.23	154.71	1437.9	143.7	161.6	1740.4	297.21	238.96	1016.6	413.88	252.04	1030.7	169.51	21.859	1036.1	324.44	34.033	1046.2	235.86	155.81	924.55	479.74	186.97	940.69	94.948	148.48	1091.4	454.36	146.91	1124	132.08	9.1603	1006.8	272.3	228.28	685.27	478.26	328.77	606.19	460.58	250.44	594.46	460.45	301.35	691.32	476.66	312.49	520.11	456.48	332.38	507.8	332.75	151.98	435.35	438.88	158.34	343.93	434.58	98.335	382.35	422.58	205.27	399.12	450.62	-12.67	235.27	394.22	31.932	220.78	312.42	-58.555	265.41	327.67	-68.525	235.05	296.46	-87.157	243.8	358.09	-3.5588	119.65	434.79	54.982	87.328	344.4	88.218	66.978	397.07	141.3	674.66	147.45	229.83	584.85	155.64	161.52	587.52	169.94	210.93	668.23	128.24	219.27	506.15	168.23	234.93	525.03	300.64	166.51	373.87	160.49	225.92	282.32	178.13	163.12	297.62	169.86	228.35	359.8	169.66	171.61	102.99	198.95	187.41	96.583	292.64	101.22	71.491	253.31	114.78	46.766	285.7	100.54	42.925	225.38	271.26	44.333	164.62	313.61	42.522	272.84	361.12	62	211.45	78.712	1482.8	312.22	33.499	1214.6	289.42
357	1.4833	303.74	1190.6	302.69	154.67	1433.6	458.08	160.16	1438.6	143.59	166.95	1741	297.28	243.46	1017.4	413.48	256.72	1031	169.07	26.413	1036.6	324.06	38.724	1046.7	235.48	160.65	925.54	479.63	191.33	940.87	94.627	152.94	1092.2	454.03	151.68	1124.4	131.62	13.784	1007.4	271.94	235.69	686.89	478.53	336.99	608.89	460.56	258.75	596.31	460.83	308.75	693.74	476.69	321.66	522.53	456.47	341.42	510.4	332.77	162.21	434.96	439.24	170.14	343.67	434.59	109.45	381.1	422.85	216.16	399.61	450.7	0.78119	232.39	394.24	45.711	218.56	312.43	-45.813	261.19	327.53	-55.091	230.45	296.49	-73.887	239.1	358.1	12.607	117.36	435.4	71.783	85.862	345.1	105.53	66.556	397.86	143.89	675.29	147.45	231.77	584.81	155.48	163.49	588.01	169.85	213.38	668.37	128.15	220.65	506.13	168.08	236.3	524.91	300.52	167.38	373.94	160.4	226.55	282.24	178.07	163.8	297.71	169.82	229.18	359.71	169.54	171.78	103.07	199.06	187.49	96.596	292.74	101.28	71.606	253.41	114.8	46.798	285.75	100.59	43.092	225.44	271.31	44.347	164.65	313.68	42.364	272.87	361.2	61.827	211.47	83.924	1483.5	312.01	38.39	1215.4	288.89
358	1.4875	308.44	1191.1	302.6	159.67	1434.1	457.94	165.61	1439.3	143.49	172.29	1741.5	297.35	247.98	1018.1	413.06	261.37	1031.3	168.61	30.965	1037.2	323.7	43.404	1047.2	235.14	165.52	926.51	479.55	195.67	941.02	94.316	157.42	1092.9	453.7	156.41	1124.8	131.15	18.409	1007.9	271.61	243	688.49	478.77	345.08	611.55	460.51	266.95	598.13	461.15	316.02	696.13	476.71	330.68	524.93	456.43	350.32	512.99	332.78	172.41	434.47	439.61	181.96	343.35	434.61	120.57	379.73	423.13	227.02	400.06	450.78	14.363	229.35	394.3	59.62	216.19	312.5	-32.922	256.76	327.43	-41.482	225.64	296.58	-60.444	234.2	358.17	28.943	114.98	436.09	88.751	84.342	345.89	122.98	66.117	398.72	146.49	675.91	147.44	233.71	584.77	155.31	165.47	588.5	169.74	215.83	668.51	128.06	222.04	506.1	167.92	237.66	524.78	300.39	168.25	374	160.31	227.19	282.15	178	164.5	297.8	169.78	230.01	359.62	169.41	171.95	103.14	199.16	187.56	96.615	292.83	101.35	71.722	253.52	114.82	46.832	285.81	100.65	43.257	225.5	271.36	44.36	164.68	313.74	42.211	272.9	361.28	61.652	211.5	89.132	1484.1	311.8	43.285	1216.2	288.37
359	1.4917	313.15	1191.5	302.51	164.66	1434.5	457.81	171.06	1440	143.4	177.63	1742	297.43	252.51	1018.8	412.63	266.01	1031.5	168.15	35.518	1037.7	323.38	48.075	1047.7	234.82	170.42	927.47	479.49	200.02	941.14	94.016	161.92	1093.6	453.36	161.11	1125.1	130.68	23.036	1008.3	271.31	250.21	690.06	478.97	353.05	614.15	460.43	275.02	599.92	461.42	323.15	698.46	476.71	339.58	527.31	456.35	359.06	515.54	332.75	182.57	433.88	439.97	193.78	342.97	434.63	131.69	378.26	423.42	237.84	400.45	450.85	28.079	226.15	394.4	73.66	213.68	312.62	-19.879	252.12	327.38	-27.693	220.63	296.73	-46.822	229.11	358.28	45.446	112.55	436.86	105.89	82.78	346.75	140.57	65.669	399.66	149.1	676.53	147.43	235.66	584.74	155.14	167.46	588.99	169.63	218.29	668.65	127.97	223.43	506.08	167.75	239.02	524.64	300.27	169.14	374.06	160.2	227.83	282.07	177.93	165.21	297.88	169.72	230.85	359.53	169.28	172.11	103.21	199.26	187.63	96.641	292.92	101.43	71.839	253.61	114.85	46.871	285.87	100.7	43.422	225.56	271.41	44.369	164.7	313.81	42.062	272.92	361.36	61.473	211.52	94.335	1484.7	311.6	48.186	1217	287.87
